<svg xmlns="http://www.w3.org/2000/svg" viewBox="0 0 64 64"><g data-name="Movie glasses"><path fill="#ffda44" d="M61,25V48a4,4,0,0,1-4,4H40.08a4,4,0,0,1-3.92-3.22L35,43H29l-1.16,5.78A4,4,0,0,1,23.92,52H7a4,4,0,0,1-4-4V25a1,1,0,0,1,1-1H60A1,1,0,0,1,61,25Z"/><rect width="18" height="20" x="7" y="27" fill="#006df0"/><rect width="18" height="20" x="39" y="27" fill="#d80027"/><polygon fill="#2488ff" points="39 47 43.211 47 55.789 27 39 27 39 47"/><polygon fill="#2488ff" points="7 47 11.211 47 23.789 27 7 27 7 47"/><polygon fill="#ee8700" points="20 12 22 19 20 20 18 16 16 16 11 24 4.91 24 15 12 20 12"/><polygon fill="#ee8700" points="48.91 12 59 24 52.91 24 47.91 16 45.91 16 43.91 20 41.91 19 43.91 12 48.91 12"/><rect width="8" height="2" x="28" y="30" fill="#ebbf00"/><rect width="4" height="2" x="30" y="34" fill="#ebbf00"/><rect width="3.606" height="2" x="10.197" y="30.5" fill="#fff" transform="rotate(-56.31 12 31.5)"/><rect width="10.817" height="2" x="9.592" y="33.5" fill="#fff" transform="rotate(-56.31 15 34.5)"/><rect width="3.606" height="2" x="42.197" y="30.5" fill="#fff" transform="rotate(-56.31 44 31.5)"/><rect width="10.817" height="2" x="41.592" y="33.5" fill="#fff" transform="rotate(-56.31 47 34.5)"/><path fill="#ffe169" d="M7,47V27H23.789l1.737-3H4a1,1,0,0,0-1,1V48a4,4,0,0,0,4,4H8.316l2.895-5Z"/></g></svg>